<svg width="280" height="280" xmlns="http://www.w3.org/2000/svg">
 <!-- Created with Method Draw - http://github.com/duopixel/Method-Draw/ -->

 <g>
  <title>background</title>
  <rect fill="#ffffff" id="canvas_background" height="282" width="282" y="-1" x="-1"/>
  <g display="none" overflow="visible" y="0" x="0" height="100%" width="100%" id="canvasGrid">
   <rect fill="url(#gridpattern)" stroke-width="0" y="0" x="0" height="100%" width="100%"/>
  </g>
 </g>
 <g>
  <title>Layer 1</title>
  <path id="svg_4" fill="#fff" d="m248.016474,138.888878l-69.444439,0l0,19.835068l47.612844,0c-6.944444,29.761282 -28.776039,54.557288 -57.539058,64.483502l-114.088533,-114.079852c11.905381,-34.72222 45.633677,-59.522565 84.331591,-59.522565c29.761282,0 56.553815,14.887152 73.411453,37.69965l14.887152,-12.890624c-19.852429,-26.801213 -51.592878,-44.652774 -88.298604,-44.652774c-51.588538,0 -95.238708,36.705726 -106.150166,85.316834l130.946171,130.946171c47.612844,-11.905381 84.331591,-55.555551 84.331591,-107.144089l0,0.008681zm-218.255192,0.989583c0,27.777776 10.911458,54.557288 31.744789,75.390619s48.611107,31.744789 75.390619,31.744789l-107.135408,-107.135408z"/>
  <path id="svg_5" fill="#2d3142" d="m138.888878,0c-76.388883,0 -138.888878,62.499995 -138.888878,138.888878s62.499995,138.888878 138.888878,138.888878s138.888878,-62.499995 138.888878,-138.888878s-62.499995,-138.888878 -138.888878,-138.888878zm-77.387147,216.276025c-20.833332,-20.833332 -31.744789,-48.611107 -31.744789,-75.390619l108.133672,107.131068c-27.777776,-0.998264 -55.555551,-10.911458 -76.388883,-31.744789l0,0.00434zm101.189228,28.771699l-129.952247,-129.969608c10.911458,-48.611107 54.561628,-85.316834 106.150166,-85.316834c36.705726,0 68.446175,17.855901 88.294264,44.644094l-14.887152,12.890624c-16.853297,-22.812498 -43.64583,-37.686629 -73.407112,-37.686629c-38.689233,0 -71.427946,24.800345 -84.331591,59.522565l114.092873,114.088533c28.776039,-9.921874 50.594614,-34.72222 57.539058,-64.483502l-47.612844,0l0,-19.848089l69.444439,0c0,51.588538 -36.705726,95.238708 -85.316834,106.150166l-0.013021,0.008681z"/>
  <g id="svg_6"/>
 </g>
</svg>